<svg version="1.1" xmlns="http://www.w3.org/2000/svg" xmlns:xlink="http://www.w3.org/1999/xlink" width="48" height="48"><defs><linearGradient x1="13.01225" y1="10.46951" x2="64.36563" y2="66.90838" gradientUnits="userSpaceOnUse" id="color-1"><stop offset="0" stop-color="#000000" stop-opacity="0.18"></stop><stop offset="1" stop-color="#000000" stop-opacity="0"></stop></linearGradient><filter id="dropshadow-base"><feColorMatrix type="matrix" values="0 0 0 0 0  0 0 0 0 0  0 0 0 0 0  0 0 0 .8 0"></feColorMatrix> <feOffset dx="0" dy="1"></feOffset> <feGaussianBlur stdDeviation="1"></feGaussianBlur> <feComposite in="SourceGraphic"></feComposite></filter><filter id="dropshadow-banner" x="-10%" y="-10%" width="120%" height="130%"><feColorMatrix type="matrix" values="0 0 0 0 0  0 0 0 0 0  0 0 0 0 0  0 0 0 .4 0"></feColorMatrix> <feOffset dx="0" dy="1"></feOffset> <feGaussianBlur stdDeviation="0.5"></feGaussianBlur> <feComposite in="SourceGraphic"></feComposite></filter></defs><g fill="none" fill-rule="nonzero" stroke="none" stroke-width="none" stroke-linecap="butt" stroke-linejoin="miter" stroke-miterlimit="10" stroke-dasharray="" stroke-dashoffset="0" font-family="none" font-weight="none" font-size="none" text-anchor="none" style="mix-blend-mode: normal"><path d="M2,24c0,-12.15026 9.84974,-22 22,-22c12.15026,0 22,9.84974 22,22c0,12.15026 -9.84974,22 -22,22c-12.15026,0 -22,-9.84974 -22,-22z" id="base 1 5" fill="#263238" stroke-width="1"></path><path d="M15.03348,21.59505l-0.78681,-0.92915v-0.55482c0,0 0.3005,-0.25593 0.45236,-0.38351l-0.65466,-0.65466l-0.15929,-0.46155l0.01756,-0.07572l0.39309,-0.85647l-1.28348,-1.28348v-5.92619h21.23292l11.67794,11.67794c0.05092,0.61077 0.0769,1.22863 0.0769,1.85256c0,12.15026 -9.84974,22 -22,22c-0.60402,0 -1.20235,-0.02434 -1.79406,-0.0721l-8.59039,-8.59039c-0.01837,-0.01837 -0.03594,-0.03803 -0.05272,-0.059c-0.16051,-0.20351 -0.24107,-0.53302 -0.24107,-0.99093c0,-0.28771 0.03028,-0.51969 0.08904,-0.69595c0.05997,-0.17504 0.14718,-0.31134 0.26409,-0.40643c0.1169,-0.09509 0.2647,-0.14234 0.44155,-0.14234c0.13083,0 0.24531,0.02605 0.34404,0.07934c0.0566,0.03002 0.10709,0.06752 0.15205,0.11248l1.43005,1.43005l0,-0.12275l-0.59783,-0.59783v-0.28892c0.13166,-0.06297 0.25017,-0.13495 0.35582,-0.21773l-2.18329,-2.18329c-0.019,-0.019 -0.03715,-0.03939 -0.05446,-0.06116c-0.16051,-0.20231 -0.24107,-0.53241 -0.24107,-0.99093c0,-0.28832 0.03028,-0.51908 0.08904,-0.69535c0.05997,-0.17504 0.14718,-0.31134 0.26409,-0.40582c0.1169,-0.0957 0.2647,-0.14295 0.44155,-0.14295c0.13083,0 0.24531,0.02666 0.34404,0.07875c0.05635,0.0299 0.10666,0.06719 0.15147,0.11201l0.62945,0.62945c0.01461,-0.10168 0.03517,-0.19208 0.06162,-0.27144c0.05819,-0.16986 0.14319,-0.30324 0.25499,-0.39732l-1.94095,-1.94095c-0.01891,-0.01891 -0.03699,-0.03922 -0.05424,-0.06091c-0.16051,-0.20231 -0.24107,-0.53302 -0.24107,-0.99093c0,-0.2871 0.03028,-0.51969 0.08904,-0.69474c0.05997,-0.17626 0.14718,-0.31134 0.26409,-0.40582c0.1169,-0.0957 0.2647,-0.14295 0.44155,-0.14295c0.13083,0 0.24531,0.02666 0.34404,0.07875c0.05637,0.02956 0.10668,0.06691 0.15151,0.11174l1.4306,1.4306l0,-0.12257l-0.59783,-0.59783v-0.28892c0.01441,-0.00684 0.02866,-0.01379 0.04277,-0.02087l-1.93151,-1.93151c-0.01806,-0.01806 -0.03538,-0.03739 -0.05194,-0.05797l0.00001,0.00001c-0.1599,-0.20351 -0.23986,-0.53363 -0.23986,-0.99154c0,-0.28832 0.03028,-0.51908 0.08844,-0.69595c0.05997,-0.17565 0.1484,-0.31073 0.26529,-0.40582c0.1169,-0.0957 0.26409,-0.14295 0.44155,-0.14295c0.13083,0 0.24531,0.02666 0.34404,0.07875c0.05601,0.02974 0.1065,0.06736 0.15168,0.11255l1.42982,1.42982l0,-0.12136l-0.59844,-0.59844v-0.28892c0.16717,-0.07934 0.31376,-0.17445 0.43913,-0.28649c0.12539,-0.11206 0.21381,-0.21987 0.26529,-0.32526l0.00001,-0.00001h0.19322l6.21905,6.21905l0.13069,-0.26243z" fill="url(#color-1)" stroke-width="1"></path><path d="M18.04867,22.13656l-1.21141,0.11084l-0.3925,-0.3925c0,0 -0.03029,-0.32647 -0.04482,-0.49001c-0.13144,-0.03574 -0.25803,-0.08116 -0.37917,-0.13568c-0.14355,0.12235 -0.43126,0.36584 -0.43126,0.36584c0,0 -0.04906,0.02726 -0.0739,0.04058c-0.02483,0.01393 -0.48214,-0.04058 -0.48214,-0.04058l-0.78681,-0.92915v-0.55482c0,0 0.30225,-0.25742 0.45367,-0.38462c-0.03271,-0.12417 -0.0527,-0.25076 -0.06118,-0.38159c-0.19867,-0.09086 -0.5948,-0.27196 -0.5948,-0.27196l-0.1593,-0.46155l0.01757,-0.07571l0.50818,-1.10722l0.53726,-0.14052c0,0 0.34222,0.15567 0.51242,0.23441c0.10479,-0.0854 0.21684,-0.16172 0.33556,-0.22896c-0.01635,-0.20594 -0.04967,-0.61842 -0.04967,-0.61842l0.3925,-0.3925l1.21322,-0.09812l0.3925,0.3925c0,0 0.02544,0.31315 0.03816,0.46942c0.15748,0.043 0.3083,0.09994 0.45125,0.16899c0.13144,-0.11327 0.39492,-0.33859 0.39492,-0.33859h0.55543l0.79287,0.9243v0.55543c0,0 -0.32102,0.27438 -0.48214,0.41309c0.02362,0.11145 0.03634,0.22774 0.04179,0.34464c0.20291,0.11629 0.60873,0.35191 0.60873,0.35191l0.14113,0.53726l-0.60934,1.05332l-0.53726,0.14113c0,0 -0.31497,-0.18232 -0.47305,-0.27317c-0.08904,0.06905 -0.18413,0.13083 -0.28347,0.18777c0.01878,0.21078 0.05694,0.63114 0.05694,0.63114zM18.24552,19.21586c0,-0.67657 -0.54816,-1.22473 -1.22534,-1.22473c-0.67596,0 -1.22413,0.54816 -1.22413,1.22473c0,0.67596 0.54816,1.22413 1.22413,1.22413c0.67718,0 1.22534,-0.54877 1.22534,-1.22413zM21.51208,26.02274l-0.91582,0.08419l-0.29679,-0.29679c0,0 -0.02241,-0.24652 -0.03392,-0.37008c-0.09994,-0.02665 -0.19564,-0.06178 -0.2871,-0.10236c-0.10842,0.09146 -0.32587,0.2762 -0.32587,0.2762c0,0 -0.03695,0.02059 -0.05572,0.03089c-0.01878,0.0103 -0.36463,-0.03089 -0.36463,-0.03089l-0.5948,-0.70262v-0.41975c0,0 0.22835,-0.19382 0.34283,-0.29013c-0.02483,-0.0951 -0.03998,-0.18959 -0.04664,-0.28892c-0.14961,-0.06844 -0.44943,-0.20533 -0.44943,-0.20533l-0.12053,-0.34888l0.01333,-0.05694l0.38402,-0.83708l0.40643,-0.1066c0,0 0.25864,0.11751 0.38704,0.17687c0.07874,-0.0642 0.16415,-0.12235 0.25379,-0.17323c-0.01211,-0.15506 -0.03755,-0.467 -0.03755,-0.467l0.29679,-0.29679l0.91703,-0.0745l0.29679,0.29679c0,0 0.01878,0.23683 0.02847,0.35494c0.11872,0.03271 0.2332,0.07571 0.34101,0.1278c0.09934,-0.0854 0.29861,-0.25561 0.29861,-0.25561h0.42036l0.59965,0.69898v0.41975c0,0 -0.24289,0.20836 -0.36463,0.31254c0.01817,0.08419 0.02786,0.17202 0.0315,0.26045c0.15385,0.08783 0.46033,0.2659 0.46033,0.2659l0.1066,0.40582l-0.46094,0.7965l-0.40643,0.1066c0,0 -0.23804,-0.13871 -0.35736,-0.20654c-0.06723,0.05209 -0.13931,0.09873 -0.21442,0.14113c0.01393,0.15991 0.043,0.4779 0.043,0.4779zM21.65987,23.81435c0,-0.51061 -0.41491,-0.92551 -0.92673,-0.92551c-0.51121,0 -0.92551,0.4143 -0.92551,0.92551c0,0.51061 0.4143,0.92612 0.92551,0.92612c0.51182,0 0.92673,-0.41551 0.92673,-0.92612zM30.24752,15.69369c-3.8874,0 -7.7742,0 -11.6616,0c-0.97639,0 -0.97639,-1.51426 0,-1.51426c3.8874,0 7.7742,0 11.6616,0c0.97639,0 0.97639,1.51426 0,1.51426zM30.24752,19.27764c-3.8874,0 -1.71777,0 -5.60517,0c-0.97579,0 -0.97579,-1.51426 0,-1.51426c3.8874,0 1.71777,0 5.60517,0c0.97639,0 0.97639,1.51426 0,1.51426zM14.82936,16.3957h-1.81711v-5.9262h21.23291v11.4278h-1.81711v-9.61069h-17.5987zM32.0295,32.7618l0.20473,0.89402l-1.06119,1.70384l-0.89341,0.20473c0,0 -0.51121,-0.31739 -0.76561,-0.47608c-0.15143,0.10842 -0.31254,0.20654 -0.4779,0.29498c0.02059,0.34828 0.06057,1.04423 0.06057,1.04423l-0.6687,0.62509l-2.00185,0.11751l-0.6269,-0.66748c0,0 -0.0321,-0.54029 -0.04724,-0.81043c-0.21563,-0.06481 -0.42157,-0.14658 -0.61782,-0.24349c-0.24349,0.19322 -0.73108,0.57966 -0.73108,0.57966c0,0 -0.08238,0.04179 -0.12356,0.06299c-0.04119,0.0212 -0.79226,-0.09267 -0.79226,-0.09267l-1.24775,-1.57362l0.02968,-0.91401c0,0 0.51242,-0.40885 0.76864,-0.61115c-0.04664,-0.20473 -0.07329,-0.41551 -0.08056,-0.63175c-0.32223,-0.16051 -0.9661,-0.47911 -0.9661,-0.47911l-0.23744,-0.76985l0.03331,-0.12296l0.89583,-1.79894l0.89341,-0.20412c0,0 0.55543,0.27559 0.83224,0.4137c0.17687,-0.13386 0.36645,-0.2544 0.56512,-0.35918c-0.01514,-0.34041 -0.04846,-1.02182 -0.04846,-1.02182l0.6687,-0.6263l2.00427,-0.09752l0.6269,0.66748c0,0 0.02605,0.51788 0.03876,0.77651c0.25682,0.07935 0.50273,0.18171 0.73472,0.30285c0.2229,-0.17868 0.6687,-0.53726 0.6687,-0.53726l0.91703,0.02968l1.25744,1.56635l-0.02968,0.91522c0,0 -0.54574,0.43671 -0.8177,0.65537c0.03331,0.18535 0.04846,0.37796 0.05088,0.57118c0.3289,0.20352 0.98548,0.61176 0.98427,0.61237zM28.91074,32.24755c0.03513,-1.11631 -0.8389,-2.04849 -1.9546,-2.08483c-1.11389,-0.03513 -2.04728,0.83829 -2.08301,1.95521c-0.03634,1.11389 0.8389,2.04667 1.95339,2.08241c1.1157,0.03574 2.04788,-0.83769 2.08422,-1.95279zM34.98775,28.84047l-1.14054,1.83225l-0.96064,0.21987c0,0 -0.22472,-0.13992 -0.45912,-0.28529l0.01878,-0.58026l0.00727,-0.22411l-0.14052,-0.17505l-1.12964,-1.40765c0.13507,-0.27135 0.21987,-0.57299 0.22956,-0.89583c0.03876,-1.1999 -0.90189,-2.20294 -2.10239,-2.2411c-0.99941,-0.03271 -1.85466,0.62024 -2.13631,1.53243l-1.60875,0.07814l-0.22229,0.0109l-0.16354,0.15203l-0.39976,0.37493c-0.35676,-0.17687 -0.80861,-0.40098 -0.80861,-0.40098l-0.25621,-0.82739l0.03634,-0.13325l0.96488,-1.9334l0.95943,-0.21987c0,0 0.59843,0.29558 0.89644,0.44459c0.18959,-0.14597 0.3925,-0.27438 0.60691,-0.38765c-0.01635,-0.36584 -0.05209,-1.09814 -0.05209,-1.09814l0.71836,-0.67354l2.15751,-0.10539l0.67294,0.71897c0,0 0.02726,0.55664 0.03998,0.83526c0.27802,0.0848 0.5421,0.19504 0.79165,0.32647c0.23925,-0.19382 0.71958,-0.57845 0.71958,-0.57845l0.98548,0.0321l1.35314,1.68507l-0.0321,0.98427c0,0 -0.58693,0.47003 -0.88009,0.70564c0.03695,0.19928 0.05209,0.40522 0.05451,0.61358c0.35373,0.21866 1.05998,0.65779 1.05998,0.65779zM13.50408,25.47458c-0.15991,-0.20352 -0.23986,-0.53362 -0.23986,-0.99154c0,-0.28831 0.03029,-0.51909 0.08843,-0.69595c0.05996,-0.17565 0.1484,-0.31073 0.2653,-0.40582c0.1169,-0.0957 0.26409,-0.14295 0.44156,-0.14295c0.13083,0 0.24531,0.02665 0.34404,0.07874c0.09812,0.05209 0.17929,0.12841 0.2447,0.22714c0.0636,0.09994 0.11448,0.22048 0.15143,0.36403c0.03574,0.14113 0.05451,0.33374 0.05451,0.57481c0,0.2865 -0.02968,0.51727 -0.08843,0.69353c-0.05875,0.17505 -0.14719,0.31073 -0.26409,0.40582c-0.1169,0.0957 -0.26409,0.14416 -0.44216,0.14416c-0.23562,0 -0.42036,-0.08419 -0.55543,-0.25197zM13.57313,24.48244c0,0.39976 0.04664,0.66567 0.14052,0.79832c0.09328,0.13265 0.20897,0.19867 0.34646,0.19867c0.13689,0 0.25258,-0.06602 0.34646,-0.19988c0.09328,-0.13204 0.14052,-0.39795 0.14052,-0.79711c0,-0.40098 -0.04724,-0.66748 -0.14052,-0.79953c-0.09449,-0.13144 -0.21078,-0.19746 -0.3501,-0.19746c-0.13749,0 -0.24773,0.05875 -0.3295,0.17505c-0.10358,0.1484 -0.15506,0.42339 -0.15385,0.82194zM16.09103,23.23893h0.19322v2.44704h-0.29922v-1.90615c-0.07208,0.06784 -0.16596,0.13749 -0.28286,0.20594c-0.1169,0.06844 -0.22229,0.11993 -0.31557,0.15385v-0.28892c0.16717,-0.07935 0.31375,-0.17444 0.43913,-0.2865c0.12538,-0.11206 0.21381,-0.21987 0.2653,-0.32526zM14.85722,27.54124c0.03634,0.14173 0.05451,0.33495 0.05451,0.57542c0,0.2871 -0.02968,0.51788 -0.08843,0.69292c-0.05936,0.17505 -0.14779,0.31133 -0.26348,0.40703c-0.11751,0.0957 -0.2653,0.14416 -0.44337,0.14416c-0.23562,0 -0.41975,-0.0848 -0.55361,-0.25318c-0.16051,-0.2023 -0.24107,-0.53302 -0.24107,-0.99093c0,-0.2871 0.03029,-0.51969 0.08904,-0.69474c0.05996,-0.17626 0.14719,-0.31133 0.26409,-0.40582c0.1169,-0.0957 0.26469,-0.14295 0.44156,-0.14295c0.13083,0 0.24531,0.02665 0.34404,0.07874c0.09934,0.05209 0.17989,0.12841 0.2447,0.22714c0.0636,0.09934 0.11448,0.21926 0.15203,0.36221zM14.60403,28.11666c0,-0.40098 -0.04664,-0.66688 -0.14052,-0.79953c-0.09388,-0.13144 -0.21018,-0.19746 -0.3501,-0.19746c-0.13749,0 -0.24773,0.05936 -0.3295,0.17505c-0.10297,0.149 -0.15324,0.42339 -0.15324,0.82254c0,0.39976 0.04543,0.66627 0.13931,0.79832c0.09388,0.13265 0.20897,0.19928 0.34646,0.19928c0.13749,0 0.25258,-0.06663 0.34646,-0.19988c0.09388,-0.13265 0.14052,-0.39795 0.14113,-0.79832zM16.3418,29.31959l-0.29922,0.00061v-1.90615c-0.07147,0.06784 -0.16596,0.13749 -0.28286,0.20594c-0.1169,0.06844 -0.22229,0.11993 -0.31497,0.15385v-0.28892c0.16717,-0.07935 0.31375,-0.17444 0.43853,-0.2865c0.12477,-0.11206 0.21381,-0.22048 0.2653,-0.32587h0.19322zM17.98204,29.31959l-0.29861,0.00061v-1.90615c-0.07087,0.06784 -0.16596,0.13749 -0.28286,0.20594c-0.1169,0.06844 -0.2229,0.11993 -0.31497,0.15385v-0.28892c0.16717,-0.07935 0.31375,-0.17444 0.43853,-0.2865c0.12477,-0.11206 0.21381,-0.22048 0.2653,-0.32587h0.19261zM20.2825,27.54245c0.03695,0.14113 0.05572,0.33374 0.05572,0.57481c0,0.2865 -0.03029,0.51727 -0.08904,0.69353c-0.05936,0.17505 -0.14658,0.31073 -0.26348,0.40582c-0.1169,0.0957 -0.26469,0.14416 -0.44216,0.14416c-0.23562,0 -0.42036,-0.08419 -0.55422,-0.25197c-0.16051,-0.20352 -0.24046,-0.53362 -0.24046,-0.99154c0,-0.28771 0.02968,-0.51909 0.08843,-0.69535c0.05996,-0.17626 0.14719,-0.31133 0.26409,-0.40582c0.1169,-0.0957 0.26469,-0.14295 0.44216,-0.14295c0.13023,0 0.2447,0.02665 0.34343,0.07874c0.09934,0.05209 0.17989,0.12841 0.2447,0.22714c0.06481,0.09934 0.11508,0.21926 0.15082,0.36342zM20.02992,28.11666c0,-0.40098 -0.04664,-0.66688 -0.14052,-0.79953c-0.09388,-0.13144 -0.21018,-0.19746 -0.3501,-0.19746c-0.13749,0 -0.24652,0.05936 -0.3295,0.17505c-0.10176,0.149 -0.15324,0.42339 -0.15324,0.82254c0,0.39976 0.04543,0.66627 0.13931,0.79832c0.09449,0.13265 0.20957,0.19928 0.34767,0.19928c0.13689,0 0.25197,-0.06663 0.34586,-0.19988c0.09449,-0.13265 0.14113,-0.39795 0.14052,-0.79832zM14.85722,31.62671c0.03634,0.14173 0.05451,0.33556 0.05451,0.57542c0,0.2865 -0.02968,0.51848 -0.08843,0.69353c-0.05936,0.17505 -0.14779,0.31133 -0.26348,0.40703c-0.11751,0.0957 -0.2653,0.14416 -0.44337,0.14416c-0.23562,0 -0.41975,-0.0854 -0.55361,-0.25379c-0.16051,-0.2023 -0.24107,-0.53241 -0.24107,-0.99093c0,-0.28831 0.03029,-0.51909 0.08904,-0.69535c0.05996,-0.17505 0.14719,-0.31133 0.26409,-0.40582c0.1169,-0.0957 0.26469,-0.14295 0.44156,-0.14295c0.13083,0 0.24531,0.02665 0.34404,0.07874c0.09934,0.0527 0.17989,0.12841 0.2447,0.22774c0.0636,0.09934 0.11448,0.21987 0.15203,0.36221zM14.60403,32.20273c0,-0.40098 -0.04664,-0.66688 -0.14052,-0.79953c-0.09388,-0.13144 -0.21018,-0.19746 -0.3501,-0.19746c-0.13749,0 -0.24773,0.05936 -0.3295,0.17505c-0.10297,0.149 -0.15324,0.42278 -0.15324,0.82194c0,0.40037 0.04543,0.66567 0.13931,0.79832c0.09388,0.13325 0.20897,0.19867 0.34646,0.19867c0.13749,0 0.25258,-0.06602 0.34646,-0.19867c0.09388,-0.13325 0.14052,-0.39916 0.14113,-0.79832zM16.74883,31.6261c0.03574,0.14173 0.05451,0.33495 0.05451,0.57542c0,0.2871 -0.02968,0.51788 -0.08843,0.69292c-0.05875,0.17626 -0.14719,0.31194 -0.26409,0.40703c-0.11629,0.09691 -0.26409,0.14416 -0.44216,0.14416c-0.23562,0 -0.41975,-0.0848 -0.55422,-0.25318c-0.15991,-0.2023 -0.23986,-0.53241 -0.23986,-0.99093c0,-0.28771 0.02968,-0.51848 0.08843,-0.69474c0.05996,-0.17505 0.1484,-0.31133 0.2653,-0.40582c0.1169,-0.0957 0.26469,-0.14295 0.44156,-0.14295c0.13083,0 0.24531,0.02665 0.34404,0.07874c0.09812,0.0527 0.17929,0.12841 0.2447,0.22774c0.0636,0.09934 0.11448,0.21987 0.15021,0.3616zM16.49746,32.20273c0,-0.40098 -0.04724,-0.66688 -0.14052,-0.79953c-0.09388,-0.13144 -0.21018,-0.19746 -0.3501,-0.19746c-0.13749,0 -0.24773,0.05936 -0.3295,0.17505c-0.10297,0.149 -0.15445,0.42278 -0.15445,0.82194c0,0.40037 0.04664,0.66567 0.14052,0.79832c0.09328,0.13325 0.20897,0.19867 0.34646,0.19867c0.13749,0 0.25258,-0.06602 0.34646,-0.19867c0.09328,-0.13325 0.14052,-0.39916 0.14113,-0.79832zM18.64104,31.6261c0.03695,0.14173 0.05572,0.33495 0.05572,0.57542c0,0.2871 -0.03029,0.51788 -0.08904,0.69292c-0.05936,0.17626 -0.14658,0.31194 -0.26348,0.40703c-0.11629,0.09691 -0.26469,0.14416 -0.44216,0.14416c-0.23562,0 -0.41975,-0.0848 -0.55422,-0.25318c-0.15991,-0.2023 -0.23986,-0.53241 -0.23986,-0.99093c0,-0.28771 0.02968,-0.51848 0.08843,-0.69474c0.05996,-0.17505 0.14779,-0.31133 0.2653,-0.40582c0.1169,-0.0957 0.26469,-0.14295 0.44156,-0.14295c0.12962,0 0.2441,0.02665 0.34404,0.07874c0.09812,0.0527 0.17929,0.12841 0.24349,0.22774c0.06481,0.09934 0.11569,0.21987 0.15021,0.3616zM18.39089,32.20273c0,-0.40098 -0.04724,-0.66688 -0.14113,-0.79953c-0.09388,-0.13144 -0.21078,-0.19746 -0.3501,-0.19746c-0.13689,0 -0.24713,0.05936 -0.3295,0.17505c-0.10236,0.149 -0.15385,0.42278 -0.15385,0.82194c0,0.40037 0.04603,0.66567 0.13992,0.79832c0.09388,0.13325 0.20897,0.19867 0.34707,0.19867c0.13628,0 0.25258,-0.06602 0.34586,-0.19867c0.09388,-0.13325 0.14113,-0.39916 0.14173,-0.79832zM20.12926,33.40566h-0.29982v-1.90675c-0.07087,0.06784 -0.16596,0.13749 -0.28286,0.20594c-0.1169,0.06844 -0.22169,0.11993 -0.31497,0.15506v-0.28953c0.16717,-0.07935 0.31315,-0.17444 0.43853,-0.2871c0.12538,-0.11145 0.21442,-0.21987 0.26651,-0.32526h0.19261zM22.00996,34.92415h0.19322v2.44765h-0.29922v-1.90615c-0.07208,0.06844 -0.16596,0.1381 -0.28286,0.20594c-0.1169,0.06844 -0.22229,0.11932 -0.31557,0.15385v-0.28892c0.16717,-0.07935 0.31375,-0.17444 0.43913,-0.2865c0.12477,-0.11206 0.21321,-0.22048 0.2653,-0.32587zM14.85722,35.71157c0.03634,0.14113 0.05451,0.33435 0.05451,0.57602c0,0.28529 -0.02968,0.51666 -0.08843,0.69171c-0.05936,0.17565 -0.14779,0.31254 -0.26348,0.40824c-0.11751,0.0957 -0.2653,0.14295 -0.44337,0.14295c-0.23562,0 -0.41975,-0.0848 -0.55361,-0.25197c-0.16051,-0.20352 -0.24107,-0.53302 -0.24107,-0.99093c0,-0.28771 0.03029,-0.51969 0.08904,-0.69595c0.05996,-0.17505 0.14719,-0.31133 0.26409,-0.40643c0.1169,-0.0951 0.26469,-0.14234 0.44156,-0.14234c0.13083,0 0.24531,0.02605 0.34404,0.07935c0.09934,0.0527 0.17989,0.12841 0.2447,0.22714c0.0636,0.09934 0.11448,0.21987 0.15203,0.36221zM14.60403,36.2888c0,-0.40158 -0.04664,-0.66809 -0.14052,-0.79953c-0.09388,-0.13265 -0.21018,-0.19746 -0.3501,-0.19746c-0.13749,0 -0.24773,0.05815 -0.3295,0.17384c-0.10297,0.149 -0.15324,0.42278 -0.15324,0.82315c0,0.39976 0.04543,0.66446 0.13931,0.79711c0.09388,0.13325 0.20897,0.19988 0.34646,0.19988c0.13749,0 0.25258,-0.06663 0.34646,-0.19988c0.09388,-0.13265 0.14052,-0.39855 0.14113,-0.79711zM16.14858,35.04287h0.19322v2.44765h-0.29922v-1.90615c-0.07147,0.06784 -0.16596,0.1381 -0.28286,0.20594c-0.1169,0.06844 -0.22229,0.11932 -0.31497,0.15385v-0.28892c0.16717,-0.07995 0.31315,-0.17444 0.43853,-0.2871c0.12477,-0.11145 0.21381,-0.21926 0.2653,-0.32526zM17.79003,35.04287h0.19261v2.44765h-0.29922v-1.90615c-0.07087,0.06784 -0.16596,0.1381 -0.28286,0.20594c-0.1169,0.06844 -0.2229,0.11932 -0.31497,0.15385v-0.28892c0.16717,-0.07995 0.31315,-0.17444 0.43853,-0.2871c0.12477,-0.11145 0.21381,-0.21926 0.2659,-0.32526zM20.2825,35.71157c0.03695,0.14113 0.05572,0.33435 0.05572,0.57602c0,0.28529 -0.03029,0.51666 -0.08904,0.69171c-0.05936,0.17565 -0.14658,0.31254 -0.26348,0.40824c-0.1169,0.0957 -0.26469,0.14295 -0.44216,0.14295c-0.23562,0 -0.42036,-0.0848 -0.55422,-0.25197c-0.16051,-0.20352 -0.24046,-0.53302 -0.24046,-0.99093c0,-0.28771 0.02968,-0.51969 0.08843,-0.69595c0.05996,-0.17505 0.14719,-0.31133 0.26409,-0.40643c0.1169,-0.0951 0.26469,-0.14234 0.44216,-0.14234c0.13023,0 0.2447,0.02605 0.34343,0.07935c0.09934,0.0527 0.17989,0.12841 0.2447,0.22714c0.06481,0.09934 0.11508,0.21987 0.15082,0.36221zM20.02992,36.2888c0,-0.40158 -0.04664,-0.66809 -0.14052,-0.79953c-0.09388,-0.13265 -0.21018,-0.19746 -0.3501,-0.19746c-0.13749,0 -0.24652,0.05815 -0.3295,0.17384c-0.10176,0.149 -0.15324,0.42278 -0.15324,0.82315c0,0.39976 0.04543,0.66446 0.13931,0.79711c0.09449,0.13325 0.20957,0.19988 0.34767,0.19988c0.13689,0 0.25197,-0.06663 0.34586,-0.19988c0.09449,-0.13265 0.14113,-0.39855 0.14052,-0.79711z" fill="none" stroke-width="0"></path><path d="M18.04867,22.13656l-1.21141,0.11084l-0.3925,-0.3925c0,0 -0.03029,-0.32647 -0.04482,-0.49001c-0.13144,-0.03574 -0.25803,-0.08116 -0.37917,-0.13568c-0.14355,0.12235 -0.43126,0.36584 -0.43126,0.36584c0,0 -0.04906,0.02726 -0.0739,0.04058c-0.02483,0.01393 -0.48214,-0.04058 -0.48214,-0.04058l-0.78681,-0.92915v-0.55482c0,0 0.30225,-0.25742 0.45367,-0.38462c-0.03271,-0.12417 -0.0527,-0.25076 -0.06118,-0.38159c-0.19867,-0.09086 -0.5948,-0.27196 -0.5948,-0.27196l-0.1593,-0.46155l0.01757,-0.07571l0.50818,-1.10722l0.53726,-0.14052c0,0 0.34222,0.15567 0.51242,0.23441c0.10479,-0.0854 0.21684,-0.16172 0.33556,-0.22896c-0.01635,-0.20594 -0.04967,-0.61842 -0.04967,-0.61842l0.3925,-0.3925l1.21322,-0.09812l0.3925,0.3925c0,0 0.02544,0.31315 0.03816,0.46942c0.15748,0.043 0.3083,0.09994 0.45125,0.16899c0.13144,-0.11327 0.39492,-0.33859 0.39492,-0.33859h0.55543l0.79287,0.9243v0.55543c0,0 -0.32102,0.27438 -0.48214,0.41309c0.02362,0.11145 0.03634,0.22774 0.04179,0.34464c0.20291,0.11629 0.60873,0.35191 0.60873,0.35191l0.14113,0.53726l-0.60934,1.05332l-0.53726,0.14113c0,0 -0.31497,-0.18232 -0.47305,-0.27317c-0.08904,0.06905 -0.18413,0.13083 -0.28347,0.18777c0.01878,0.21078 0.05694,0.63114 0.05694,0.63114zM18.24552,19.21586c0,-0.67657 -0.54816,-1.22473 -1.22534,-1.22473c-0.67596,0 -1.22413,0.54816 -1.22413,1.22473c0,0.67596 0.54816,1.22413 1.22413,1.22413c0.67718,0 1.22534,-0.54877 1.22534,-1.22413zM21.51208,26.02274l-0.91582,0.08419l-0.29679,-0.29679c0,0 -0.02241,-0.24652 -0.03392,-0.37008c-0.09994,-0.02665 -0.19564,-0.06178 -0.2871,-0.10236c-0.10842,0.09146 -0.32587,0.2762 -0.32587,0.2762c0,0 -0.03695,0.02059 -0.05572,0.03089c-0.01878,0.0103 -0.36463,-0.03089 -0.36463,-0.03089l-0.5948,-0.70262v-0.41975c0,0 0.22835,-0.19382 0.34283,-0.29013c-0.02483,-0.0951 -0.03998,-0.18959 -0.04664,-0.28892c-0.14961,-0.06844 -0.44943,-0.20533 -0.44943,-0.20533l-0.12053,-0.34888l0.01333,-0.05694l0.38402,-0.83708l0.40643,-0.1066c0,0 0.25864,0.11751 0.38704,0.17687c0.07874,-0.0642 0.16415,-0.12235 0.25379,-0.17323c-0.01211,-0.15506 -0.03755,-0.467 -0.03755,-0.467l0.29679,-0.29679l0.91703,-0.0745l0.29679,0.29679c0,0 0.01878,0.23683 0.02847,0.35494c0.11872,0.03271 0.2332,0.07571 0.34101,0.1278c0.09934,-0.0854 0.29861,-0.25561 0.29861,-0.25561h0.42036l0.59965,0.69898v0.41975c0,0 -0.24289,0.20836 -0.36463,0.31254c0.01817,0.08419 0.02786,0.17202 0.0315,0.26045c0.15385,0.08783 0.46033,0.2659 0.46033,0.2659l0.1066,0.40582l-0.46094,0.7965l-0.40643,0.1066c0,0 -0.23804,-0.13871 -0.35736,-0.20654c-0.06723,0.05209 -0.13931,0.09873 -0.21442,0.14113c0.01393,0.15991 0.043,0.4779 0.043,0.4779zM21.65987,23.81435c0,-0.51061 -0.41491,-0.92551 -0.92673,-0.92551c-0.51121,0 -0.92551,0.4143 -0.92551,0.92551c0,0.51061 0.4143,0.92612 0.92551,0.92612c0.51182,0 0.92673,-0.41551 0.92673,-0.92612zM30.24752,15.69369c-3.8874,0 -7.7742,0 -11.6616,0c-0.97639,0 -0.97639,-1.51426 0,-1.51426c3.8874,0 7.7742,0 11.6616,0c0.97639,0 0.97639,1.51426 0,1.51426zM30.24752,19.27764c-3.8874,0 -1.71777,0 -5.60517,0c-0.97579,0 -0.97579,-1.51426 0,-1.51426c3.8874,0 1.71777,0 5.60517,0c0.97639,0 0.97639,1.51426 0,1.51426zM14.82936,16.3957h-1.81711v-5.9262h21.23291v11.4278h-1.81711v-9.61069h-17.5987zM32.0295,32.7618l0.20473,0.89402l-1.06119,1.70384l-0.89341,0.20473c0,0 -0.51121,-0.31739 -0.76561,-0.47608c-0.15143,0.10842 -0.31254,0.20654 -0.4779,0.29498c0.02059,0.34828 0.06057,1.04423 0.06057,1.04423l-0.6687,0.62509l-2.00185,0.11751l-0.6269,-0.66748c0,0 -0.0321,-0.54029 -0.04724,-0.81043c-0.21563,-0.06481 -0.42157,-0.14658 -0.61782,-0.24349c-0.24349,0.19322 -0.73108,0.57966 -0.73108,0.57966c0,0 -0.08238,0.04179 -0.12356,0.06299c-0.04119,0.0212 -0.79226,-0.09267 -0.79226,-0.09267l-1.24775,-1.57362l0.02968,-0.91401c0,0 0.51242,-0.40885 0.76864,-0.61115c-0.04664,-0.20473 -0.07329,-0.41551 -0.08056,-0.63175c-0.32223,-0.16051 -0.9661,-0.47911 -0.9661,-0.47911l-0.23744,-0.76985l0.03331,-0.12296l0.89583,-1.79894l0.89341,-0.20412c0,0 0.55543,0.27559 0.83224,0.4137c0.17687,-0.13386 0.36645,-0.2544 0.56512,-0.35918c-0.01514,-0.34041 -0.04846,-1.02182 -0.04846,-1.02182l0.6687,-0.6263l2.00427,-0.09752l0.6269,0.66748c0,0 0.02605,0.51788 0.03876,0.77651c0.25682,0.07935 0.50273,0.18171 0.73472,0.30285c0.2229,-0.17868 0.6687,-0.53726 0.6687,-0.53726l0.91703,0.02968l1.25744,1.56635l-0.02968,0.91522c0,0 -0.54574,0.43671 -0.8177,0.65537c0.03331,0.18535 0.04846,0.37796 0.05088,0.57118c0.3289,0.20352 0.98548,0.61176 0.98427,0.61237zM28.91074,32.24755c0.03513,-1.11631 -0.8389,-2.04849 -1.9546,-2.08483c-1.11389,-0.03513 -2.04728,0.83829 -2.08301,1.95521c-0.03634,1.11389 0.8389,2.04667 1.95339,2.08241c1.1157,0.03574 2.04788,-0.83769 2.08422,-1.95279zM34.98775,28.84047l-1.14054,1.83225l-0.96064,0.21987c0,0 -0.22472,-0.13992 -0.45912,-0.28529l0.01878,-0.58026l0.00727,-0.22411l-0.14052,-0.17505l-1.12964,-1.40765c0.13507,-0.27135 0.21987,-0.57299 0.22956,-0.89583c0.03876,-1.1999 -0.90189,-2.20294 -2.10239,-2.2411c-0.99941,-0.03271 -1.85466,0.62024 -2.13631,1.53243l-1.60875,0.07814l-0.22229,0.0109l-0.16354,0.15203l-0.39976,0.37493c-0.35676,-0.17687 -0.80861,-0.40098 -0.80861,-0.40098l-0.25621,-0.82739l0.03634,-0.13325l0.96488,-1.9334l0.95943,-0.21987c0,0 0.59843,0.29558 0.89644,0.44459c0.18959,-0.14597 0.3925,-0.27438 0.60691,-0.38765c-0.01635,-0.36584 -0.05209,-1.09814 -0.05209,-1.09814l0.71836,-0.67354l2.15751,-0.10539l0.67294,0.71897c0,0 0.02726,0.55664 0.03998,0.83526c0.27802,0.0848 0.5421,0.19504 0.79165,0.32647c0.23925,-0.19382 0.71958,-0.57845 0.71958,-0.57845l0.98548,0.0321l1.35314,1.68507l-0.0321,0.98427c0,0 -0.58693,0.47003 -0.88009,0.70564c0.03695,0.19928 0.05209,0.40522 0.05451,0.61358c0.35373,0.21866 1.05998,0.65779 1.05998,0.65779zM13.50408,25.47458c-0.15991,-0.20352 -0.23986,-0.53362 -0.23986,-0.99154c0,-0.28831 0.03029,-0.51909 0.08843,-0.69595c0.05996,-0.17565 0.1484,-0.31073 0.2653,-0.40582c0.1169,-0.0957 0.26409,-0.14295 0.44156,-0.14295c0.13083,0 0.24531,0.02665 0.34404,0.07874c0.09812,0.05209 0.17929,0.12841 0.2447,0.22714c0.0636,0.09994 0.11448,0.22048 0.15143,0.36403c0.03574,0.14113 0.05451,0.33374 0.05451,0.57481c0,0.2865 -0.02968,0.51727 -0.08843,0.69353c-0.05875,0.17505 -0.14719,0.31073 -0.26409,0.40582c-0.1169,0.0957 -0.26409,0.14416 -0.44216,0.14416c-0.23562,0 -0.42036,-0.08419 -0.55543,-0.25197zM13.57313,24.48244c0,0.39976 0.04664,0.66567 0.14052,0.79832c0.09328,0.13265 0.20897,0.19867 0.34646,0.19867c0.13689,0 0.25258,-0.06602 0.34646,-0.19988c0.09328,-0.13204 0.14052,-0.39795 0.14052,-0.79711c0,-0.40098 -0.04724,-0.66748 -0.14052,-0.79953c-0.09449,-0.13144 -0.21078,-0.19746 -0.3501,-0.19746c-0.13749,0 -0.24773,0.05875 -0.3295,0.17505c-0.10358,0.1484 -0.15506,0.42339 -0.15385,0.82194zM16.09103,23.23893h0.19322v2.44704h-0.29922v-1.90615c-0.07208,0.06784 -0.16596,0.13749 -0.28286,0.20594c-0.1169,0.06844 -0.22229,0.11993 -0.31557,0.15385v-0.28892c0.16717,-0.07935 0.31375,-0.17444 0.43913,-0.2865c0.12538,-0.11206 0.21381,-0.21987 0.2653,-0.32526zM14.85722,27.54124c0.03634,0.14173 0.05451,0.33495 0.05451,0.57542c0,0.2871 -0.02968,0.51788 -0.08843,0.69292c-0.05936,0.17505 -0.14779,0.31133 -0.26348,0.40703c-0.11751,0.0957 -0.2653,0.14416 -0.44337,0.14416c-0.23562,0 -0.41975,-0.0848 -0.55361,-0.25318c-0.16051,-0.2023 -0.24107,-0.53302 -0.24107,-0.99093c0,-0.2871 0.03029,-0.51969 0.08904,-0.69474c0.05996,-0.17626 0.14719,-0.31133 0.26409,-0.40582c0.1169,-0.0957 0.26469,-0.14295 0.44156,-0.14295c0.13083,0 0.24531,0.02665 0.34404,0.07874c0.09934,0.05209 0.17989,0.12841 0.2447,0.22714c0.0636,0.09934 0.11448,0.21926 0.15203,0.36221zM14.60403,28.11666c0,-0.40098 -0.04664,-0.66688 -0.14052,-0.79953c-0.09388,-0.13144 -0.21018,-0.19746 -0.3501,-0.19746c-0.13749,0 -0.24773,0.05936 -0.3295,0.17505c-0.10297,0.149 -0.15324,0.42339 -0.15324,0.82254c0,0.39976 0.04543,0.66627 0.13931,0.79832c0.09388,0.13265 0.20897,0.19928 0.34646,0.19928c0.13749,0 0.25258,-0.06663 0.34646,-0.19988c0.09388,-0.13265 0.14052,-0.39795 0.14113,-0.79832zM16.3418,29.31959l-0.29922,0.00061v-1.90615c-0.07147,0.06784 -0.16596,0.13749 -0.28286,0.20594c-0.1169,0.06844 -0.22229,0.11993 -0.31497,0.15385v-0.28892c0.16717,-0.07935 0.31375,-0.17444 0.43853,-0.2865c0.12477,-0.11206 0.21381,-0.22048 0.2653,-0.32587h0.19322zM17.98204,29.31959l-0.29861,0.00061v-1.90615c-0.07087,0.06784 -0.16596,0.13749 -0.28286,0.20594c-0.1169,0.06844 -0.2229,0.11993 -0.31497,0.15385v-0.28892c0.16717,-0.07935 0.31375,-0.17444 0.43853,-0.2865c0.12477,-0.11206 0.21381,-0.22048 0.2653,-0.32587h0.19261zM20.2825,27.54245c0.03695,0.14113 0.05572,0.33374 0.05572,0.57481c0,0.2865 -0.03029,0.51727 -0.08904,0.69353c-0.05936,0.17505 -0.14658,0.31073 -0.26348,0.40582c-0.1169,0.0957 -0.26469,0.14416 -0.44216,0.14416c-0.23562,0 -0.42036,-0.08419 -0.55422,-0.25197c-0.16051,-0.20352 -0.24046,-0.53362 -0.24046,-0.99154c0,-0.28771 0.02968,-0.51909 0.08843,-0.69535c0.05996,-0.17626 0.14719,-0.31133 0.26409,-0.40582c0.1169,-0.0957 0.26469,-0.14295 0.44216,-0.14295c0.13023,0 0.2447,0.02665 0.34343,0.07874c0.09934,0.05209 0.17989,0.12841 0.2447,0.22714c0.06481,0.09934 0.11508,0.21926 0.15082,0.36342zM20.02992,28.11666c0,-0.40098 -0.04664,-0.66688 -0.14052,-0.79953c-0.09388,-0.13144 -0.21018,-0.19746 -0.3501,-0.19746c-0.13749,0 -0.24652,0.05936 -0.3295,0.17505c-0.10176,0.149 -0.15324,0.42339 -0.15324,0.82254c0,0.39976 0.04543,0.66627 0.13931,0.79832c0.09449,0.13265 0.20957,0.19928 0.34767,0.19928c0.13689,0 0.25197,-0.06663 0.34586,-0.19988c0.09449,-0.13265 0.14113,-0.39795 0.14052,-0.79832zM14.85722,31.62671c0.03634,0.14173 0.05451,0.33556 0.05451,0.57542c0,0.2865 -0.02968,0.51848 -0.08843,0.69353c-0.05936,0.17505 -0.14779,0.31133 -0.26348,0.40703c-0.11751,0.0957 -0.2653,0.14416 -0.44337,0.14416c-0.23562,0 -0.41975,-0.0854 -0.55361,-0.25379c-0.16051,-0.2023 -0.24107,-0.53241 -0.24107,-0.99093c0,-0.28831 0.03029,-0.51909 0.08904,-0.69535c0.05996,-0.17505 0.14719,-0.31133 0.26409,-0.40582c0.1169,-0.0957 0.26469,-0.14295 0.44156,-0.14295c0.13083,0 0.24531,0.02665 0.34404,0.07874c0.09934,0.0527 0.17989,0.12841 0.2447,0.22774c0.0636,0.09934 0.11448,0.21987 0.15203,0.36221zM14.60403,32.20273c0,-0.40098 -0.04664,-0.66688 -0.14052,-0.79953c-0.09388,-0.13144 -0.21018,-0.19746 -0.3501,-0.19746c-0.13749,0 -0.24773,0.05936 -0.3295,0.17505c-0.10297,0.149 -0.15324,0.42278 -0.15324,0.82194c0,0.40037 0.04543,0.66567 0.13931,0.79832c0.09388,0.13325 0.20897,0.19867 0.34646,0.19867c0.13749,0 0.25258,-0.06602 0.34646,-0.19867c0.09388,-0.13325 0.14052,-0.39916 0.14113,-0.79832zM16.74883,31.6261c0.03574,0.14173 0.05451,0.33495 0.05451,0.57542c0,0.2871 -0.02968,0.51788 -0.08843,0.69292c-0.05875,0.17626 -0.14719,0.31194 -0.26409,0.40703c-0.11629,0.09691 -0.26409,0.14416 -0.44216,0.14416c-0.23562,0 -0.41975,-0.0848 -0.55422,-0.25318c-0.15991,-0.2023 -0.23986,-0.53241 -0.23986,-0.99093c0,-0.28771 0.02968,-0.51848 0.08843,-0.69474c0.05996,-0.17505 0.1484,-0.31133 0.2653,-0.40582c0.1169,-0.0957 0.26469,-0.14295 0.44156,-0.14295c0.13083,0 0.24531,0.02665 0.34404,0.07874c0.09812,0.0527 0.17929,0.12841 0.2447,0.22774c0.0636,0.09934 0.11448,0.21987 0.15021,0.3616zM16.49746,32.20273c0,-0.40098 -0.04724,-0.66688 -0.14052,-0.79953c-0.09388,-0.13144 -0.21018,-0.19746 -0.3501,-0.19746c-0.13749,0 -0.24773,0.05936 -0.3295,0.17505c-0.10297,0.149 -0.15445,0.42278 -0.15445,0.82194c0,0.40037 0.04664,0.66567 0.14052,0.79832c0.09328,0.13325 0.20897,0.19867 0.34646,0.19867c0.13749,0 0.25258,-0.06602 0.34646,-0.19867c0.09328,-0.13325 0.14052,-0.39916 0.14113,-0.79832zM18.64104,31.6261c0.03695,0.14173 0.05572,0.33495 0.05572,0.57542c0,0.2871 -0.03029,0.51788 -0.08904,0.69292c-0.05936,0.17626 -0.14658,0.31194 -0.26348,0.40703c-0.11629,0.09691 -0.26469,0.14416 -0.44216,0.14416c-0.23562,0 -0.41975,-0.0848 -0.55422,-0.25318c-0.15991,-0.2023 -0.23986,-0.53241 -0.23986,-0.99093c0,-0.28771 0.02968,-0.51848 0.08843,-0.69474c0.05996,-0.17505 0.14779,-0.31133 0.2653,-0.40582c0.1169,-0.0957 0.26469,-0.14295 0.44156,-0.14295c0.12962,0 0.2441,0.02665 0.34404,0.07874c0.09812,0.0527 0.17929,0.12841 0.24349,0.22774c0.06481,0.09934 0.11569,0.21987 0.15021,0.3616zM18.39089,32.20273c0,-0.40098 -0.04724,-0.66688 -0.14113,-0.79953c-0.09388,-0.13144 -0.21078,-0.19746 -0.3501,-0.19746c-0.13689,0 -0.24713,0.05936 -0.3295,0.17505c-0.10236,0.149 -0.15385,0.42278 -0.15385,0.82194c0,0.40037 0.04603,0.66567 0.13992,0.79832c0.09388,0.13325 0.20897,0.19867 0.34707,0.19867c0.13628,0 0.25258,-0.06602 0.34586,-0.19867c0.09388,-0.13325 0.14113,-0.39916 0.14173,-0.79832zM20.12926,33.40566h-0.29982v-1.90675c-0.07087,0.06784 -0.16596,0.13749 -0.28286,0.20594c-0.1169,0.06844 -0.22169,0.11993 -0.31497,0.15506v-0.28953c0.16717,-0.07935 0.31315,-0.17444 0.43853,-0.2871c0.12538,-0.11145 0.21442,-0.21987 0.26651,-0.32526h0.19261zM22.00996,34.92415h0.19322v2.44765h-0.29922v-1.90615c-0.07208,0.06844 -0.16596,0.1381 -0.28286,0.20594c-0.1169,0.06844 -0.22229,0.11932 -0.31557,0.15385v-0.28892c0.16717,-0.07935 0.31375,-0.17444 0.43913,-0.2865c0.12477,-0.11206 0.21321,-0.22048 0.2653,-0.32587zM14.85722,35.71157c0.03634,0.14113 0.05451,0.33435 0.05451,0.57602c0,0.28529 -0.02968,0.51666 -0.08843,0.69171c-0.05936,0.17565 -0.14779,0.31254 -0.26348,0.40824c-0.11751,0.0957 -0.2653,0.14295 -0.44337,0.14295c-0.23562,0 -0.41975,-0.0848 -0.55361,-0.25197c-0.16051,-0.20352 -0.24107,-0.53302 -0.24107,-0.99093c0,-0.28771 0.03029,-0.51969 0.08904,-0.69595c0.05996,-0.17505 0.14719,-0.31133 0.26409,-0.40643c0.1169,-0.0951 0.26469,-0.14234 0.44156,-0.14234c0.13083,0 0.24531,0.02605 0.34404,0.07935c0.09934,0.0527 0.17989,0.12841 0.2447,0.22714c0.0636,0.09934 0.11448,0.21987 0.15203,0.36221zM14.60403,36.2888c0,-0.40158 -0.04664,-0.66809 -0.14052,-0.79953c-0.09388,-0.13265 -0.21018,-0.19746 -0.3501,-0.19746c-0.13749,0 -0.24773,0.05815 -0.3295,0.17384c-0.10297,0.149 -0.15324,0.42278 -0.15324,0.82315c0,0.39976 0.04543,0.66446 0.13931,0.79711c0.09388,0.13325 0.20897,0.19988 0.34646,0.19988c0.13749,0 0.25258,-0.06663 0.34646,-0.19988c0.09388,-0.13265 0.14052,-0.39855 0.14113,-0.79711zM16.14858,35.04287h0.19322v2.44765h-0.29922v-1.90615c-0.07147,0.06784 -0.16596,0.1381 -0.28286,0.20594c-0.1169,0.06844 -0.22229,0.11932 -0.31497,0.15385v-0.28892c0.16717,-0.07995 0.31315,-0.17444 0.43853,-0.2871c0.12477,-0.11145 0.21381,-0.21926 0.2653,-0.32526zM17.79003,35.04287h0.19261v2.44765h-0.29922v-1.90615c-0.07087,0.06784 -0.16596,0.1381 -0.28286,0.20594c-0.1169,0.06844 -0.2229,0.11932 -0.31497,0.15385v-0.28892c0.16717,-0.07995 0.31315,-0.17444 0.43853,-0.2871c0.12477,-0.11145 0.21381,-0.21926 0.2659,-0.32526zM20.2825,35.71157c0.03695,0.14113 0.05572,0.33435 0.05572,0.57602c0,0.28529 -0.03029,0.51666 -0.08904,0.69171c-0.05936,0.17565 -0.14658,0.31254 -0.26348,0.40824c-0.1169,0.0957 -0.26469,0.14295 -0.44216,0.14295c-0.23562,0 -0.42036,-0.0848 -0.55422,-0.25197c-0.16051,-0.20352 -0.24046,-0.53302 -0.24046,-0.99093c0,-0.28771 0.02968,-0.51969 0.08843,-0.69595c0.05996,-0.17505 0.14719,-0.31133 0.26409,-0.40643c0.1169,-0.0951 0.26469,-0.14234 0.44216,-0.14234c0.13023,0 0.2447,0.02605 0.34343,0.07935c0.09934,0.0527 0.17989,0.12841 0.2447,0.22714c0.06481,0.09934 0.11508,0.21987 0.15082,0.36221zM20.02992,36.2888c0,-0.40158 -0.04664,-0.66809 -0.14052,-0.79953c-0.09388,-0.13265 -0.21018,-0.19746 -0.3501,-0.19746c-0.13749,0 -0.24652,0.05815 -0.3295,0.17384c-0.10176,0.149 -0.15324,0.42278 -0.15324,0.82315c0,0.39976 0.04543,0.66446 0.13931,0.79711c0.09449,0.13325 0.20957,0.19988 0.34767,0.19988c0.13689,0 0.25197,-0.06663 0.34586,-0.19988c0.09449,-0.13265 0.14113,-0.39855 0.14052,-0.79711z" fill="#55d7c6" stroke-width="0"></path><path d="M2,24c0,-12.15026 9.84974,-22 22,-22c12.15026,0 22,9.84974 22,22c0,12.15026 -9.84974,22 -22,22c-12.15026,0 -22,-9.84974 -22,-22z" id="base 1 1 1" fill="none" stroke-width="1"></path><g id="Capa_1 1 1" fill="#000000" stroke-width="1" font-family="Roboto, sans-serif" font-weight="400" font-size="14" text-anchor="start"><g><g id="_x31_86_50_ 1 1"><g></g></g></g><g></g><g></g><g></g><g></g><g></g><g></g><g></g><g></g><g></g><g></g><g></g><g></g><g></g><g></g><g></g></g><rect x="2" y="2" width="44" height="22" fill="none" stroke-width="1"></rect><path d="M2,24v-22h44v22z" fill="none" stroke-width="1"></path><path d="M2,24v-22h44v22z" fill="none" stroke-width="1"></path><path d="M2,24v-22h44v22z" fill="none" stroke-width="1"></path><path d="M2,24v-22h44v22z" fill="none" stroke-width="1"></path></g></svg>